<?xml version="1.0" encoding="UTF-8" standalone="no"?>
<svg xmlns="http://www.w3.org/2000/svg" width="100" height="100">
  <path fill="#FAFCFE" d="M50.432927 10.214327c-23.140533 0-41.8985372 18.758005-41.8985372 41.898537 0 23.140532 18.7580042 41.89939 41.8985372 41.89939 23.140532 0 41.897683-18.758858 41.897683-41.89939 0-23.140532-18.757151-41.898537-41.897683-41.898537zm7.310186 66.675691c0 3.756209-3.247644 6.799915-7.253015 6.799915s-7.253016-3.043706-7.253016-6.799915V45.691812c0-3.755355 3.247645-6.799915 7.253016-6.799915s7.253015 3.04456 7.253015 6.799915zm-7.310186-40.802052c-4.307438 0-7.799978-3.491687-7.799978-7.800831 0-4.308291 3.491687-7.799978 7.799978-7.799978 4.309144 0 7.800831 3.491687 7.800831 7.799978-.000853 4.309144-3.49254 7.800831-7.800831 7.800831z"/>
</svg>